<?xml version="1.0" standalone="no"?><!DOCTYPE svg PUBLIC "-//W3C//DTD SVG 1.1//EN" "http://www.w3.org/Graphics/SVG/1.1/DTD/svg11.dtd"><svg t="1554185381563" class="icon" style="" viewBox="0 0 1462 1024" version="1.1" xmlns="http://www.w3.org/2000/svg" p-id="12505" xmlns:xlink="http://www.w3.org/1999/xlink" width="35.693359375" height="25"><defs><style type="text/css"></style></defs><path d="M1389.714286 146.285714H438.857143a73.142857 73.142857 0 1 1 0-146.285714h950.857143a73.142857 73.142857 0 1 1 0 146.285714zM731.428571 585.142857h-292.571428a73.142857 73.142857 0 0 1 0-146.285714h292.571428a73.142857 73.142857 0 0 1 0 146.285714z m658.285715 438.857143H438.857143a73.142857 73.142857 0 0 1 0-146.285714h950.857143a73.142857 73.142857 0 0 1 0 146.285714zM146.285714 146.285714H73.142857a73.142857 73.142857 0 1 1 0-146.285714h73.142857a73.142857 73.142857 0 0 1 0 146.285714z m0 438.857143H73.142857a73.142857 73.142857 0 1 1 0-146.285714h73.142857a73.142857 73.142857 0 0 1 0 146.285714z m0 438.857143H73.142857a73.142857 73.142857 0 1 1 0-146.285714h73.142857a73.142857 73.142857 0 0 1 0 146.285714z" fill="#1e3851" p-id="12506"></path></svg>